<?xml version="1.0" encoding="UTF-8" standalone="no"?>
<svg
   xmlns:dc="http://purl.org/dc/elements/1.1/"
   xmlns:cc="http://creativecommons.org/ns#"
   xmlns:rdf="http://www.w3.org/1999/02/22-rdf-syntax-ns#"
   xmlns:svg="http://www.w3.org/2000/svg"
   xmlns="http://www.w3.org/2000/svg"
   viewBox="0 0 740 740"
   height="740"
   width="740"
   xml:space="preserve"
   id="svg2"
   version="1.1"><metadata
     id="metadata8"><rdf:RDF><cc:Work
         rdf:about=""><dc:format>image/svg+xml</dc:format><dc:type
           rdf:resource="http://purl.org/dc/dcmitype/StillImage" /></cc:Work></rdf:RDF></metadata><defs
     id="defs6"><clipPath
       id="clipPath18"
       clipPathUnits="userSpaceOnUse"><path
         id="path16"
         d="M 0,555 H 555 V 0 H 0 Z" /></clipPath></defs><g
     transform="matrix(1.3333333,0,0,-1.3333333,0,740)"
     id="g10"><g
       id="g12"><g
         clip-path="url(#clipPath18)"
         id="g14"><g
           transform="translate(518.0527,0.5)"
           id="g20"><path
             id="path22"
             style="fill:#0d1317;fill-opacity:1;fill-rule:nonzero;stroke:none"
             d="m 0,0 h -481.105 c -20.13,0 -36.448,16.318 -36.448,36.447 v 481.106 c 0,20.129 16.318,36.447 36.448,36.447 H 0 c 20.129,0 36.447,-16.318 36.447,-36.447 V 36.447 C 36.447,16.318 20.129,0 0,0" /></g><g
           transform="translate(437.8682,372.2632)"
           id="g24"><path
             id="path26"
             style="fill:#24373f;fill-opacity:1;fill-rule:nonzero;stroke:none"
             d="m 0,0 h -320.737 c -20.129,0 -36.447,16.318 -36.447,36.447 v 29.158 c 0,20.129 16.318,36.448 36.447,36.448 H 0 c 20.13,0 36.447,-16.319 36.447,-36.448 V 36.447 C 36.447,16.318 20.13,0 0,0" /></g><g
           transform="translate(437.8682,80.6846)"
           id="g28"><path
             id="path30"
             style="fill:#ce4534;fill-opacity:1;fill-rule:nonzero;stroke:none"
             d="m 0,0 h -7.289 c -20.13,0 -36.447,16.317 -36.447,36.447 v 153.079 c 0,20.129 16.317,36.447 36.447,36.447 H 0 c 20.13,0 36.447,-16.318 36.447,-36.447 V 36.447 C 36.447,16.317 20.13,0 0,0" /></g><g
           transform="translate(126.9268,80.6846)"
           id="g32"><path
             id="path34"
             style="fill:#edf0f3;fill-opacity:1;fill-rule:nonzero;stroke:none"
             d="m 0,0 h -9.795 c -20.129,0 -36.448,16.317 -36.448,36.447 v 21.868 c 0,20.129 16.319,36.448 36.448,36.448 H 0 c 20.129,0 36.447,-16.319 36.447,-36.448 V 36.447 C 36.447,16.317 20.129,0 0,0" /></g><g
           transform="translate(284.7896,80.6846)"
           id="g36"><path
             id="path38"
             style="fill:#edf0f3;fill-opacity:1;fill-rule:nonzero;stroke:none"
             d="m 0,0 h -9.795 c -20.13,0 -36.448,16.317 -36.448,36.447 v 21.868 c 0,20.129 16.318,36.448 36.448,36.448 H 0 c 20.129,0 36.448,-16.319 36.448,-36.448 V 36.447 C 36.448,16.317 20.129,0 0,0" /></g><g
           transform="translate(126.9268,211.8945)"
           id="g40"><path
             id="path42"
             style="fill:#edf0f3;fill-opacity:1;fill-rule:nonzero;stroke:none"
             d="m 0,0 h -9.795 c -20.129,0 -36.448,16.318 -36.448,36.447 v 21.869 c 0,20.129 16.319,36.447 36.448,36.447 H 0 c 20.129,0 36.447,-16.318 36.447,-36.447 V 36.447 C 36.447,16.318 20.129,0 0,0" /></g><g
           transform="translate(284.7896,211.8945)"
           id="g44"><path
             id="path46"
             style="fill:#edf0f3;fill-opacity:1;fill-rule:nonzero;stroke:none"
             d="m 0,0 h -9.795 c -20.13,0 -36.448,16.318 -36.448,36.447 v 21.869 c 0,20.129 16.318,36.447 36.448,36.447 H 0 c 20.129,0 36.448,-16.318 36.448,-36.447 V 36.447 C 36.448,16.318 20.129,0 0,0" /></g></g></g></g></svg>