<?xml version="1.0" encoding="UTF-8" standalone="no"?>
<!-- Created with Inkscape (http://www.inkscape.org/) -->

<svg
   version="1.1"
   id="svg2"
   xml:space="preserve"
   width="200"
   height="78"
   viewBox="0 0 1333.3333 260"
   sodipodi:docname="CryptoDex Logo-01.ai"
   xmlns:inkscape="http://www.inkscape.org/namespaces/inkscape"
   xmlns:sodipodi="http://sodipodi.sourceforge.net/DTD/sodipodi-0.dtd"
   xmlns="http://www.w3.org/2000/svg"
   xmlns:svg="http://www.w3.org/2000/svg"><defs
     id="defs6"><clipPath
       clipPathUnits="userSpaceOnUse"
       id="clipPath16"><path
         d="M 0,195 H 1000 V 0 H 0 Z"
         id="path14" /></clipPath></defs><sodipodi:namedview
     id="namedview4"
     pagecolor="#ffffff"
     bordercolor="#666666"
     borderopacity="1.0"
     inkscape:pageshadow="2"
     inkscape:pageopacity="0.0"
     inkscape:pagecheckerboard="0" /><g
     id="g8"
     inkscape:groupmode="layer"
     inkscape:label="CryptoDex Logo-01"
     transform="matrix(1.3333333,0,0,-1.3333333,0,260)"><g
       id="g10"><g
         id="g12"
         clip-path="url(#clipPath16)"><g
           id="g18"
           transform="translate(277.6207,66.3808)"><path
             d="m 0,0 c -2.345,-0.771 -4.769,-1.438 -7.273,-1.999 -2.505,-0.562 -5.148,-0.988 -7.925,-1.277 -2.779,-0.289 -5.756,-0.434 -8.937,-0.434 -6.744,0 -12.951,0.723 -18.618,2.168 -5.669,1.445 -10.551,3.62 -14.644,6.527 -4.096,2.907 -7.284,6.536 -9.563,10.888 -2.281,4.351 -3.421,9.433 -3.421,15.247 0,5.812 1.14,10.894 3.421,15.247 2.279,4.35 5.467,7.98 9.563,10.887 4.093,2.905 8.975,5.082 14.644,6.527 5.667,1.445 11.874,2.167 18.618,2.167 3.181,0 6.158,-0.144 8.937,-0.433 2.777,-0.289 5.42,-0.715 7.925,-1.277 C -4.769,63.676 -2.345,63.01 0,62.24 2.345,61.469 4.674,60.602 6.986,59.638 v -16.09 c -1.832,0.995 -3.758,1.982 -5.781,2.963 -2.024,0.979 -4.256,1.862 -6.696,2.65 -2.442,0.785 -5.123,1.428 -8.046,1.927 -2.922,0.496 -6.214,0.746 -9.875,0.746 -5.62,0 -10.284,-0.578 -13.994,-1.734 -3.709,-1.156 -6.671,-2.698 -8.889,-4.625 -2.215,-1.927 -3.773,-4.135 -4.672,-6.623 -0.9,-2.49 -1.348,-5.067 -1.348,-7.732 0,-1.767 0.192,-3.51 0.578,-5.227 0.384,-1.719 1.026,-3.341 1.926,-4.865 0.899,-1.527 2.072,-2.932 3.516,-4.216 1.446,-1.285 3.244,-2.393 5.396,-3.324 2.151,-0.931 4.665,-1.662 7.54,-2.191 2.874,-0.531 6.19,-0.796 9.947,-0.796 3.661,0 6.953,0.232 9.875,0.699 2.923,0.465 5.604,1.084 8.046,1.854 2.44,0.771 4.672,1.646 6.696,2.626 2.023,0.979 3.949,1.983 5.781,3.011 V 2.601 C 4.674,1.638 2.345,0.771 0,0"
             style="fill:#ffffff;fill-opacity:1;fill-rule:nonzero;stroke:none"
             id="path20" /></g><g
           id="g22"
           transform="translate(354.4567,109.7362)"><path
             d="m 0,0 c 0,1.285 -0.168,2.376 -0.505,3.276 -0.338,0.899 -0.925,1.629 -1.759,2.192 -0.835,0.561 -1.951,0.97 -3.347,1.228 -1.398,0.257 -3.141,0.385 -5.228,0.385 H -35.311 V -7.082 h 24.472 c 2.087,0 3.83,0.128 5.228,0.386 1.396,0.257 2.512,0.666 3.347,1.229 0.834,0.561 1.421,1.292 1.759,2.192 C -0.168,-2.376 0,-1.285 0,0 m -35.311,-45.283 h -17.872 v 66.19 h 44.802 c 4.818,0 8.903,-0.498 12.259,-1.493 3.356,-0.996 6.086,-2.409 8.189,-4.24 2.104,-1.83 3.63,-4.039 4.578,-6.623 0.946,-2.586 1.42,-5.468 1.42,-8.647 0,-2.794 -0.393,-5.236 -1.18,-7.322 -0.786,-2.088 -1.847,-3.878 -3.18,-5.372 -1.332,-1.493 -2.883,-2.754 -4.648,-3.781 -1.766,-1.028 -3.63,-1.88 -5.588,-2.554 L 25.147,-45.283 H 4.239 l -20.04,24.376 h -19.51 z"
             style="fill:#ffffff;fill-opacity:1;fill-rule:nonzero;stroke:none"
             id="path24" /></g><g
           id="g26"
           transform="translate(430.0895,91.4784)"><path
             d="M 0,0 V -27.025 H -17.825 V 0 l -32.082,39.165 h 20.04 l 21.003,-26.64 20.906,26.64 h 20.04 z"
             style="fill:#ffffff;fill-opacity:1;fill-rule:nonzero;stroke:none"
             id="path28" /></g><g
           id="g30"
           transform="translate(530.819,107.7606)"><path
             d="M 0,0 C 0,1.542 -0.217,2.867 -0.65,3.975 -1.084,5.083 -1.799,5.99 -2.794,6.697 -3.79,7.403 -5.091,7.925 -6.695,8.263 -8.303,8.6 -10.277,8.768 -12.621,8.768 H -38.442 V -8.286 h 25.821 c 2.344,0 4.318,0.137 5.926,0.41 1.604,0.272 2.905,0.738 3.901,1.397 0.995,0.658 1.71,1.518 2.144,2.578 C -0.217,-2.841 0,-1.542 0,0 m 18.064,0.289 c 0,-3.307 -0.48,-6.351 -1.444,-9.128 -0.964,-2.778 -2.514,-5.171 -4.648,-7.178 C 9.835,-18.025 7.065,-19.59 3.661,-20.714 0.256,-21.838 -3.887,-22.4 -8.768,-22.4 h -29.674 v -20.907 h -17.872 v 66.19 h 47.546 c 4.881,0 9.024,-0.554 12.429,-1.662 3.404,-1.108 6.174,-2.666 8.311,-4.673 2.134,-2.008 3.684,-4.392 4.648,-7.153 0.964,-2.763 1.444,-5.798 1.444,-9.106"
             style="fill:#ffffff;fill-opacity:1;fill-rule:nonzero;stroke:none"
             id="path32" /></g><g
           id="g34"
           transform="translate(600.7662,116.2392)"><path
             d="M 0,0 V -51.786 H -17.873 V 0 H -45.958 V 14.404 H 28.133 L 28.133,0 Z"
             style="fill:#ffffff;fill-opacity:1;fill-rule:nonzero;stroke:none"
             id="path36" /></g><g
           id="g38"
           transform="translate(707.3248,97.5004)"><path
             d="m 0,0 c 0,2.472 -0.394,4.938 -1.18,7.395 -0.787,2.457 -2.184,4.664 -4.191,6.623 -2.007,1.959 -4.745,3.549 -8.213,4.77 -3.469,1.219 -7.885,1.83 -13.247,1.83 -3.598,0 -6.762,-0.282 -9.491,-0.843 -2.731,-0.563 -5.09,-1.341 -7.081,-2.336 -1.993,-0.997 -3.661,-2.161 -5.01,-3.493 -1.349,-1.333 -2.426,-2.762 -3.229,-4.287 -0.802,-1.527 -1.373,-3.116 -1.709,-4.769 -0.337,-1.655 -0.506,-3.285 -0.506,-4.89 0,-1.638 0.169,-3.292 0.506,-4.962 0.336,-1.67 0.907,-3.268 1.709,-4.793 0.803,-1.526 1.88,-2.947 3.229,-4.264 1.349,-1.317 3.017,-2.464 5.01,-3.444 1.991,-0.98 4.35,-1.751 7.081,-2.312 2.729,-0.562 5.893,-0.843 9.491,-0.843 5.362,0 9.778,0.61 13.247,1.83 3.468,1.22 6.206,2.81 8.213,4.769 2.007,1.959 3.404,4.167 4.191,6.625 C -0.394,-4.938 0,-2.473 0,0 m 18.065,0 c 0,-5.685 -1.044,-10.703 -3.13,-15.054 -2.088,-4.353 -5.076,-7.989 -8.961,-10.912 -3.887,-2.922 -8.599,-5.129 -14.139,-6.623 -5.54,-1.493 -11.763,-2.241 -18.666,-2.241 -6.906,0 -13.145,0.748 -18.716,2.241 -5.572,1.494 -10.317,3.701 -14.235,6.623 -3.919,2.923 -6.937,6.559 -9.057,10.912 -2.119,4.351 -3.18,9.369 -3.18,15.054 0,5.685 1.061,10.702 3.18,15.054 2.12,4.351 5.138,7.989 9.057,10.911 3.918,2.922 8.663,5.131 14.235,6.624 5.571,1.494 11.81,2.24 18.716,2.24 6.903,0 13.126,-0.746 18.666,-2.24 5.54,-1.493 10.252,-3.702 14.139,-6.624 3.885,-2.922 6.873,-6.56 8.961,-10.911 2.086,-4.352 3.13,-9.369 3.13,-15.054"
             style="fill:#ffffff;fill-opacity:1;fill-rule:nonzero;stroke:none"
             id="path40" /></g><g
           id="g42"
           transform="translate(804.7311,97.5966)"><path
             d="m 0,0 c 0,3.18 -0.409,5.941 -1.228,8.286 -0.819,2.344 -2.136,4.278 -3.95,5.805 -1.815,1.525 -4.184,2.665 -7.105,3.42 -2.924,0.754 -6.488,1.132 -10.696,1.132 H -45.187 V -18.74 h 22.208 c 4.208,0 7.772,0.377 10.696,1.133 2.921,0.754 5.29,1.91 7.105,3.469 1.814,1.556 3.131,3.508 3.95,5.852 C -0.409,-5.941 0,-3.179 0,0 m 18.017,0 c 0,-4.239 -0.466,-8.005 -1.397,-11.296 -0.932,-3.293 -2.24,-6.159 -3.927,-8.6 -1.685,-2.44 -3.709,-4.512 -6.069,-6.213 -2.36,-1.703 -4.986,-3.068 -7.876,-4.096 -2.891,-1.028 -6.007,-1.774 -9.346,-2.239 -3.34,-0.467 -6.825,-0.699 -10.454,-0.699 h -42.007 v 66.19 h 41.912 c 3.628,0 7.113,-0.234 10.453,-0.699 3.34,-0.466 6.463,-1.212 9.37,-2.24 2.906,-1.028 5.547,-2.384 7.925,-4.07 2.376,-1.686 4.407,-3.757 6.092,-6.215 C 14.38,17.367 15.688,14.5 16.62,11.224 17.551,7.948 18.017,4.207 18.017,0"
             style="fill:#ffffff;fill-opacity:1;fill-rule:nonzero;stroke:none"
             id="path44" /></g><g
           id="g46"
           transform="translate(839.0299,64.4535)"><path
             d="M 0,0 V 66.19 H 67.009 V 52.075 H 18.354 V 41.14 h 46.15 V 27.025 H 18.354 V 14.114 h 49.33 V 0 Z"
             style="fill:#ffffff;fill-opacity:1;fill-rule:nonzero;stroke:none"
             id="path48" /></g><g
           id="g50"
           transform="translate(967.7496,98.4154)"><path
             d="M 0,0 31.408,-33.962 H 9.971 L -10.742,-11.658 -31.36,-33.962 H -52.75 L -21.39,0 -51.208,32.228 h 21.437 L -10.742,11.514 8.382,32.228 h 21.436 z"
             style="fill:#ffffff;fill-opacity:1;fill-rule:nonzero;stroke:none"
             id="path52" /></g><g
           id="g54"
           transform="translate(145.5729,62.4765)"><path
             d="M 0,0 -60.662,-35.023 -121.324,0 V 70.047 L -60.662,105.07 0,70.047 Z m -60.662,132.098 -84.069,-48.537 v -97.074 l 84.069,-48.538 84.069,48.538 v 97.074 z"
             style="fill:#ffffff;fill-opacity:1;fill-rule:nonzero;stroke:none"
             id="path56" /></g><g
           id="g58"
           transform="translate(84.9108,97.4999)"><path
             d="M 0,0 V 0"
             style="fill:none;stroke:#ffffff;stroke-width:6;stroke-linecap:round;stroke-linejoin:round;stroke-miterlimit:4;stroke-dasharray:none;stroke-opacity:1"
             id="path60" /></g><g
           id="g62"
           transform="translate(84.9108,97.4999)"><path
             d="M 0,0 -60.662,35.023"
             style="fill:none;stroke:#ffffff;stroke-width:6;stroke-linecap:round;stroke-linejoin:round;stroke-miterlimit:4;stroke-dasharray:none;stroke-opacity:1"
             id="path64" /></g><g
           id="g66"
           transform="translate(145.5729,132.5233)"><path
             d="M 0,0 -60.662,-35.023"
             style="fill:none;stroke:#ffffff;stroke-width:6;stroke-linecap:round;stroke-linejoin:round;stroke-miterlimit:4;stroke-dasharray:none;stroke-opacity:1"
             id="path68" /></g><g
           id="g70"
           transform="translate(84.9108,97.4999)"><path
             d="M 0,0 V 0"
             style="fill:none;stroke:#ffffff;stroke-width:6;stroke-linecap:round;stroke-linejoin:round;stroke-miterlimit:4;stroke-dasharray:none;stroke-opacity:1"
             id="path72" /></g><g
           id="g74"
           transform="translate(84.9108,27.4535)"><path
             d="M 0,0 V 70.046"
             style="fill:none;stroke:#ffffff;stroke-width:6;stroke-linecap:round;stroke-linejoin:round;stroke-miterlimit:4;stroke-dasharray:none;stroke-opacity:1"
             id="path76" /></g></g></g></g></svg>
